<?xml version="1.0" encoding="utf-8"?>
<!-- Generator: Adobe Illustrator 16.0.4, SVG Export Plug-In . SVG Version: 6.00 Build 0)  -->
<!DOCTYPE svg PUBLIC "-//W3C//DTD SVG 1.1//EN" "http://www.w3.org/Graphics/SVG/1.1/DTD/svg11.dtd">
<svg version="1.1" id="layer1" xmlns="http://www.w3.org/2000/svg" xmlns:xlink="http://www.w3.org/1999/xlink" x="0px" y="0px"
	 width="55.5px" height="56px" viewBox="0 0 55.5 56" enable-background="new 0 0 55.5 56" xml:space="preserve">
<linearGradient id="SVGID_1_" gradientUnits="userSpaceOnUse" x1="27.6099" y1="55.0547" x2="27.6099" y2="-0.9453" gradientTransform="matrix(1 0 0 -1 0.1401 55.0547)">
	<stop  offset="0" style="stop-color:#FCAB40"/>
	<stop  offset="1" style="stop-color:#FF3728"/>
</linearGradient>
<ellipse fill="url(#SVGID_1_)" cx="27.75" cy="28" rx="27.75" ry="28"/>
<rect x="-0.122" y="12.166" fill="none" width="55.872" height="19.334"/>
<g enable-background="new    ">
	<path fill="#FFFFFF" d="M11.816,25.665c0.673,0.461,1.612,0.798,2.622,0.798c1.772,0,2.87-1.01,2.87-2.48
		c0-1.347-0.691-2.126-2.409-2.799c-1.931-0.673-3.083-1.665-3.083-3.295c0-1.754,1.453-3.029,3.472-3.029
		c1.116,0,1.966,0.301,2.374,0.566l-0.319,0.709c-0.319-0.23-1.081-0.567-2.108-0.567c-1.931,0-2.586,1.24-2.586,2.18
		c0,1.328,0.762,2.001,2.48,2.675c1.967,0.797,3.012,1.683,3.012,3.472c0,1.736-1.24,3.296-3.791,3.296
		c-1.027,0-2.232-0.354-2.852-0.815L11.816,25.665z"/>
	<path fill="#FFFFFF" d="M20.196,18.49l1.417,4.837c0.301,0.992,0.549,1.843,0.726,2.657h0.053c0.213-0.779,0.496-1.683,0.851-2.657
		l1.701-4.837h0.797l1.63,4.802c0.336,1.027,0.603,1.896,0.833,2.692h0.036c0.177-0.797,0.442-1.647,0.762-2.675l1.523-4.819h0.868
		l-2.834,8.504h-0.745l-1.594-4.73c-0.372-1.027-0.656-1.948-0.886-2.905h-0.036c-0.248,1.01-0.567,1.949-0.921,2.924l-1.701,4.712
		h-0.744l-2.604-8.504H20.196z"/>
	<path fill="#FFFFFF" d="M34.245,16.063c0,0.39-0.266,0.727-0.708,0.727c-0.391,0-0.656-0.337-0.656-0.727s0.301-0.744,0.691-0.744
		C33.979,15.319,34.245,15.656,34.245,16.063z M33.146,26.994V18.49h0.833v8.504H33.146z"/>
	<path fill="#FFFFFF" d="M36.902,26.994v-7.83H35.68V18.49h1.223v-0.46c0-1.312,0.248-2.374,0.939-3.064
		c0.514-0.515,1.223-0.744,1.877-0.744c0.55,0,1.028,0.142,1.276,0.283l-0.267,0.673c-0.229-0.124-0.566-0.248-1.08-0.248
		c-1.576,0-1.913,1.453-1.913,3.083v0.478h2.285v0.674h-2.285v7.83H36.902z"/>
	<path fill="#FFFFFF" d="M42.819,16.613v1.877h2.427v0.674h-2.427v5.527c0,1.08,0.337,1.771,1.24,1.771
		c0.442,0,0.762-0.071,0.974-0.142l0.107,0.655c-0.283,0.124-0.674,0.213-1.188,0.213c-0.619,0-1.134-0.213-1.453-0.62
		c-0.389-0.443-0.531-1.152-0.531-2.02v-5.386h-1.435V18.49h1.435v-1.559L42.819,16.613z"/>
</g>
<rect x="-0.373" y="28" fill="none" width="56.373" height="19.162"/>
<g enable-background="new    ">
	<path fill="#FFFFFF" d="M16.691,30.769h0.8v10.786h5.121v0.681h-5.921V30.769z"/>
	<path fill="#FFFFFF" d="M25.349,31.738c0,0.374-0.255,0.697-0.681,0.697c-0.375,0-0.629-0.323-0.629-0.697
		c0-0.375,0.289-0.715,0.664-0.715C25.093,31.023,25.349,31.347,25.349,31.738z M24.293,42.235v-8.166h0.8v8.166H24.293z"/>
	<path fill="#FFFFFF" d="M27.848,36.025c0-0.749-0.034-1.31-0.068-1.956h0.749l0.067,1.479h0.034
		c0.442-0.919,1.463-1.667,2.807-1.667c0.783,0,2.842,0.392,2.842,3.453v4.9H33.48v-4.832c0-1.48-0.579-2.824-2.264-2.824
		c-1.156,0-2.127,0.816-2.449,1.872c-0.068,0.204-0.119,0.476-0.119,0.731v5.053h-0.8V36.025z"/>
	<path fill="#FFFFFF" d="M38.088,32.266v1.804h2.33v0.646h-2.33v5.308c0,1.038,0.322,1.701,1.19,1.701
		c0.425,0,0.731-0.067,0.936-0.136l0.103,0.63c-0.272,0.119-0.646,0.204-1.141,0.204c-0.595,0-1.088-0.204-1.395-0.596
		c-0.375-0.426-0.51-1.106-0.51-1.939v-5.172h-1.379v-0.646h1.379v-1.498L38.088,32.266z"/>
</g>
</svg>
